<?xml version="1.0" standalone="no"?><!DOCTYPE svg PUBLIC "-//W3C//DTD SVG 1.1//EN" "http://www.w3.org/Graphics/SVG/1.1/DTD/svg11.dtd"><svg t="1689929634401" class="icon" viewBox="0 0 1024 1024" version="1.1" xmlns="http://www.w3.org/2000/svg" p-id="953" xmlns:xlink="http://www.w3.org/1999/xlink" width="200" height="200"><path d="M639.23 511L389 657.14c-20.85 12.18-38.23 2.61-38.23-22.61v-293.1c0-24.35 17.38-34.79 38.23-22.61l250.2 147c20.88 13.03 20.88 32.18 0.03 45.18zM760 192.71H601l68.63-64.36c10.43-10.44 10.43-27 0-36.53-5.21-5.22-12.16-7.83-20-7.83a30.58 30.58 0 0 0-20 7.83L522 192.71H416.83L309.1 91.82c-5.21-5.22-12.16-7.83-20-7.83a30.58 30.58 0 0 0-20 7.83c-10.43 10.44-10.43 27 0 36.53l68.63 64.36H176.18c-69.5 0-125.1 62.62-125.1 140.89v305.28c0 78.28 55.6 140.9 125.1 140.9h39.09c0 23.48 20.85 43.48 46 43.48s46-19.13 46-43.48h324c0 23.48 20.85 43.48 46 43.48s46-19.13 46-43.48h35.61c69.51 0 125.11-63.49 125.11-140.9V333.6c1.09-78.27-54.51-140.89-123.99-140.89z" p-id="954" fill="#3178c6"></path></svg>